<svg width="20" height="20" viewBox="0 0 20 20" fill="none" xmlns="http://www.w3.org/2000/svg">
<path d="M0 14.7973C0.000112697 15.0314 0.0168801 15.2651 0.0501785 15.4968L0.844204 15.423L0.874462 15.5906C0.962251 16.1204 1.12396 16.6354 1.35486 17.1203C1.54301 17.5178 1.81017 17.8729 2.14004 18.1638C2.4663 18.4395 2.84513 18.6461 3.25359 18.7711C3.73065 18.9147 4.22692 18.9841 4.72506 18.977C5.24144 18.9854 5.75657 18.9236 6.25629 18.7932C6.64757 18.6927 7.01288 18.5098 7.32779 18.2568C7.59138 18.0469 7.80977 17.7858 7.9698 17.4893C8.10848 17.2193 8.17987 16.9198 8.1779 16.6163C8.17981 16.4305 8.15063 16.2457 8.09156 16.0695C8.03486 15.9048 7.94831 15.7519 7.83623 15.6186C7.69873 15.4626 7.53611 15.3306 7.35509 15.2282C7.10692 15.085 6.84544 14.9661 6.57434 14.8733C6.36403 14.7995 6.00761 14.6954 5.51171 14.5619C5.01581 14.4283 4.37823 14.2667 3.60117 14.0711C2.05591 13.6874 0.859706 13.2373 0.00147629 12.7081L0 14.7973Z" fill="#000284"/>
<path d="M14.7973 0H4.89774C3.75501 0.000331366 2.64836 0.400165 1.76931 1.1303C0.890267 1.86044 0.294147 2.87493 0.0841255 3.99818C0.304145 3.87033 0.531864 3.75623 0.765984 3.65652C1.79911 3.21375 3.03738 2.99827 4.47711 2.99827C5.65093 2.99827 6.68406 3.1279 7.57648 3.38717C8.47087 3.64766 9.22578 4.04099 9.83533 4.56788C10.4271 5.07437 10.9011 5.704 11.2241 6.41274C11.5519 7.15784 11.7295 7.96032 11.7466 8.77416L11.7532 8.95717L7.67463 9.13797L7.64732 8.9771C7.58602 8.57055 7.46466 8.17537 7.2872 7.8045C7.14555 7.50927 6.94044 7.24897 6.68652 7.04221C6.41456 6.83545 6.10276 6.68721 5.77073 6.60682C5.33485 6.50097 4.88721 6.45137 4.43874 6.45923C3.96643 6.45294 3.49525 6.507 3.03664 6.6201C2.66588 6.71186 2.31549 6.87203 2.00352 7.09239C1.8397 7.20392 1.70486 7.35293 1.6102 7.52704C1.52282 7.70114 1.47901 7.89385 1.48253 8.08861C1.48071 8.27117 1.52165 8.45161 1.60207 8.6155C1.69213 8.79103 1.8178 8.94585 1.97105 9.07008C2.10767 9.1786 2.25622 9.2712 2.41382 9.34607C2.64506 9.45809 2.88258 9.55664 3.12519 9.64125C3.84644 9.88958 4.58083 10.098 5.325 10.2655C7.14994 10.7002 8.50333 11.143 9.39846 11.6145C10.266 12.0595 10.997 12.7318 11.5119 13.5597C12.0285 14.3892 12.2779 15.4046 12.2772 16.6015C12.2774 17.6934 11.9603 18.7617 11.3643 19.6766L11.3518 19.695H14.7951C16.094 19.695 17.3398 19.179 18.2583 18.2605C19.1768 17.342 19.6928 16.0962 19.6928 14.7973V4.89774C19.6928 3.59916 19.1771 2.35374 18.2591 1.4353C17.341 0.516856 16.0958 0.000586972 14.7973 0Z" fill="#000284"/>
</svg>
